<?xml version="1.0" standalone="no"?>
<!DOCTYPE svg PUBLIC "-//W3C//DTD SVG 20010904//EN"
 "http://www.w3.org/TR/2001/REC-SVG-20010904/DTD/svg10.dtd">
<svg version="1.0" xmlns="http://www.w3.org/2000/svg"
 width="626.000000pt" height="417.000000pt" viewBox="0 0 626.000000 417.000000"
 preserveAspectRatio="xMidYMid meet">

<g transform="translate(0.000000,417.000000) scale(0.100000,-0.100000)"
fill="#000000" stroke="none">
<path d="M4327 3892 c-31 -32 -36 -86 -12 -118 13 -18 14 -18 15 -1 0 10 7 26
16 35 14 13 22 14 62 3 26 -7 50 -17 54 -24 4 -7 13 2 23 25 19 48 20 45 -14
79 -41 41 -105 41 -144 1z"/>
<path d="M1459 3653 c-100 -56 -459 -358 -459 -385 0 -22 24 -38 123 -78 l77
-32 0 -43 c0 -24 7 -78 15 -121 13 -70 13 -83 -2 -138 -33 -123 -16 -327 31
-365 16 -13 34 26 60 127 25 93 21 138 -19 221 -23 48 -40 104 -50 165 -20
125 -18 156 7 76 22 -70 38 -94 80 -116 l27 -14 3 -778 c3 -736 4 -779 22
-812 42 -79 110 -127 196 -137 l49 -6 22 76 23 76 28 -15 c15 -8 28 -17 28
-20 0 -2 -11 -27 -25 -54 -14 -27 -25 -52 -25 -55 0 -3 20 -5 45 -5 l45 0 0
55 0 55 41 0 41 0 -8 -42 c-4 -24 -7 -50 -8 -58 -1 -13 63 -16 494 -23 272 -4
500 -9 505 -11 7 -3 2 -85 -17 -247 -15 -134 -27 -251 -27 -261 -1 -14 -17
-17 -122 -20 -135 -3 -142 -7 -154 -80 -5 -30 -3 -44 11 -59 17 -18 37 -19
689 -19 632 0 674 1 695 18 l22 18 -19 69 c-22 79 -45 99 -100 89 -36 -7 -43
5 -17 27 12 10 17 10 23 0 6 -9 10 -6 14 10 10 38 -3 41 -43 9 -21 -16 -43
-30 -49 -30 -6 0 -11 -4 -11 -10 0 -5 -13 -10 -28 -10 l-28 0 -40 240 -41 239
76 3 c61 2 76 6 74 18 -1 8 -7 41 -13 72 l-11 57 -72 4 -72 3 70 2 71 2 1 45
c2 39 -1 45 -15 41 -20 -6 -1811 9 -1815 15 -2 2 -1 43 1 92 l4 87 852 0 851
1 -28 24 -28 25 -455 0 -455 0 -24 24 c-13 13 -26 39 -30 57 -3 19 -5 213 -3
431 l3 398 28 27 27 28 505 0 505 0 27 -28 28 -27 0 -395 c0 -217 3 -395 6
-395 3 0 11 11 17 24 8 19 16 23 33 19 12 -3 24 -14 26 -25 3 -10 12 -18 19
-18 8 0 14 -4 14 -10 0 -5 -7 -10 -15 -10 -8 0 -15 -5 -15 -11 0 -28 25 -106
38 -122 14 -16 14 -24 2 -65 -24 -85 -24 -109 -2 -116 30 -10 106 12 135 40
15 14 34 39 43 56 37 71 -9 179 -95 225 -33 17 -45 29 -46 47 -1 32 -30 63
-66 71 l-29 7 0 99 c0 65 5 112 15 135 l14 34 183 -2 183 -3 13 -40 c19 -58
13 -645 -7 -668 -11 -15 -38 -17 -182 -17 -93 0 -169 -4 -169 -8 0 -5 11 -14
26 -20 14 -7 30 -26 36 -42 5 -17 15 -30 21 -30 9 0 9 -2 1 -8 -9 -5 -9 -24 0
-77 l11 -70 234 -3 c129 -1 238 1 242 5 4 5 10 36 14 70 l7 62 -129 4 -128 3
132 2 131 2 11 50 c6 28 11 53 11 55 0 2 -39 6 -87 7 -84 3 -88 4 -100 29 -10
20 -13 155 -13 573 0 474 2 550 15 576 l16 30 188 0 c201 0 202 0 214 -51 4
-14 7 -145 7 -290 1 -146 5 -270 9 -277 4 -7 21 12 44 52 20 35 76 117 122
182 l86 119 -6 125 c-15 326 -35 511 -60 560 -28 53 -105 100 -166 100 -9 0
-19 9 -22 19 -3 13 -17 21 -46 26 -45 7 -56 3 -56 -23 0 -9 -8 -18 -17 -20
-12 -2 -18 3 -18 15 0 28 12 39 55 53 66 21 85 37 85 73 0 18 -5 38 -12 45
-16 16 -57 15 -91 -3 -33 -17 -35 -13 -39 60 l-3 50 -129 3 c-86 2 -133 -1
-142 -9 -9 -7 -14 -31 -14 -61 0 -44 -2 -49 -17 -43 -71 29 -71 29 -92 10 -26
-22 -27 -67 -3 -87 9 -9 34 -21 55 -28 33 -10 37 -15 37 -46 0 -24 -5 -34 -15
-34 -9 0 -15 9 -15 25 0 23 -4 25 -45 25 -34 0 -47 -5 -55 -20 -11 -20 -17
-21 -148 -15 -143 6 -876 21 -1547 31 -214 3 -393 9 -396 13 -9 9 -29 86 -28
107 0 11 29 43 65 73 63 54 76 79 52 99 -10 8 -358 109 -549 160 -32 8 -43 6
-80 -15z m416 -324 c-77 -77 -171 -168 -210 -201 -38 -33 22 30 135 141 113
110 207 201 210 201 3 0 -58 -63 -135 -141z m2522 75 c-9 -9 -28 6 -21 18 4 6
10 6 17 -1 6 -6 8 -13 4 -17z m13 -224 c12 -8 9 -10 -13 -10 -16 0 -26 4 -22
10 8 12 16 12 35 0z m-1695 -115 c319 -8 891 -22 1270 -31 554 -13 694 -19
713 -30 21 -14 22 -21 22 -139 0 -113 -2 -125 -19 -135 -13 -7 -522 -10 -1574
-10 -1433 0 -1556 1 -1568 17 -9 10 -14 43 -14 96 l0 80 90 22 c99 25 186 64
254 117 l43 33 102 -3 c55 -1 362 -9 681 -17z m-1435 -280 c6 -19 9 -41 7 -48
-3 -6 -6 -3 -6 8 -1 11 -8 33 -16 49 -17 33 -19 39 -6 31 5 -3 15 -21 21 -40z
m-33 -172 c-2 -27 -3 -5 -3 47 0 52 1 74 3 48 2 -27 2 -69 0 -95z m1059 62
c12 -9 42 -14 82 -15 71 0 97 -17 107 -72 3 -18 5 -217 3 -441 l-3 -409 -28
-24 -28 -24 -284 0 c-178 0 -286 -4 -290 -10 -3 -5 -25 -10 -48 -10 l-41 0 36
38 c20 20 39 47 42 59 11 35 -10 94 -54 153 -56 76 -60 97 -28 142 18 26 -11
53 -46 44 -42 -11 -66 -41 -66 -85 0 -29 -9 -51 -34 -84 -19 -24 -39 -54 -45
-65 -18 -34 -13 -113 9 -149 25 -41 5 -45 -37 -9 l-28 24 -3 423 c-2 307 1
431 9 452 11 26 48 54 94 68 11 4 164 7 341 8 267 1 323 -1 340 -14z m1854
-30 c8 -10 8 -19 0 -34 -10 -20 -19 -21 -200 -21 -181 0 -190 1 -200 21 -15
27 2 47 43 51 18 2 102 2 189 0 118 -2 159 -6 168 -17z m-2873 -27 c-3 -7 -5
-2 -5 12 0 14 2 19 5 13 2 -7 2 -19 0 -25z m2871 -90 c8 -8 12 -53 12 -134 0
-98 -3 -126 -16 -138 -13 -13 -45 -16 -199 -16 -172 0 -185 1 -195 19 -15 28
-13 254 2 269 8 8 67 12 198 12 131 0 190 -4 198 -12z m-2464 -925 c-4 -10
-12 -51 -17 -90 l-10 -73 -58 0 c-75 0 -89 14 -89 86 0 78 19 94 111 94 64 0
70 -2 63 -17z m-151 -230 c-18 -2 -48 -2 -65 0 -18 2 -4 4 32 4 36 0 50 -2 33
-4z m545 -10 c-43 -2 -113 -2 -155 0 -43 1 -8 3 77 3 85 0 120 -2 78 -3z m580
-10 c-42 -2 -114 -2 -160 0 -46 1 -11 3 77 3 88 0 125 -2 83 -3z m575 -10
c-46 -2 -120 -2 -165 0 -46 1 -9 3 82 3 91 0 128 -2 83 -3z m-63 -27 c0 -2 -9
-6 -20 -9 -11 -3 -18 -1 -14 4 5 9 34 13 34 5z m-11 -75 c-6 -2 -18 4 -27 13
-15 15 -15 15 10 4 15 -7 23 -15 17 -17z m134 -588 c-7 -2 -21 -2 -30 0 -10 3
-4 5 12 5 17 0 24 -2 18 -5z m-415 -10 c-54 -2 -142 -2 -195 0 -54 1 -10 3 97
3 107 0 151 -2 98 -3z m-298 -7 c0 -2 -7 -7 -16 -10 -8 -3 -12 -2 -9 4 6 10
25 14 25 6z"/>
<path d="M3680 1726 c0 -14 10 -30 24 -39 40 -27 51 8 14 43 -28 26 -38 25
-38 -4z"/>
<path d="M4803 1447 c-2 -4 -1 -16 2 -27 7 -24 44 -35 85 -26 18 3 30 1 30 -5
0 -5 8 -9 18 -7 13 2 16 -3 14 -19 -3 -25 12 -31 24 -11 23 37 11 84 -24 94
-35 10 -142 11 -149 1z"/>
<path d="M4463 1214 c-5 -15 59 -195 80 -221 7 -10 65 -13 228 -13 188 0 219
2 219 15 0 12 -16 15 -84 15 l-83 0 -43 96 c-24 52 -53 102 -64 110 -31 21
-244 20 -253 -2z m165 -107 c2 -10 -3 -17 -12 -17 -10 0 -16 9 -16 21 0 24 23
21 28 -4z"/>
<path d="M1526 1042 c-3 -5 -2 -29 2 -53 7 -41 10 -44 42 -47 37 -4 33 13 -5
20 -16 2 -20 12 -21 41 -1 39 -8 55 -18 39z"/>
<path d="M1731 962 c-14 -27 -6 -32 56 -32 61 0 71 16 16 26 -21 4 -43 11 -50
16 -8 6 -15 3 -22 -10z"/>
<path d="M4983 906 c-97 -32 -161 -70 -169 -102 -10 -38 2 -88 37 -165 38 -83
49 -94 74 -75 18 13 18 16 2 66 -19 59 -22 121 -7 136 6 6 24 8 41 6 27 -4 30
-8 25 -29 -4 -13 -13 -61 -22 -106 -19 -103 -24 -118 -33 -113 -12 8 -69 -56
-76 -86 -4 -16 -3 -28 1 -28 28 0 84 23 99 40 16 18 31 20 137 20 72 0 118 4
118 10 0 6 -25 10 -55 10 l-55 0 0 129 c0 93 4 132 13 139 7 6 42 12 77 14 63
3 65 4 68 32 2 16 -1 33 -6 38 -5 5 -7 27 -5 49 l6 39 -99 0 c-76 -1 -116 -6
-171 -24z m95 -411 c-2 -1 -31 -5 -65 -7 -49 -3 -63 -1 -63 9 0 8 6 13 13 12
36 -4 42 4 103 146 6 14 10 -8 12 -69 2 -49 2 -90 0 -91z"/>
<path d="M4030 717 c0 -18 34 -49 43 -40 4 3 7 17 7 30 0 18 -5 23 -25 23 -14
0 -25 -6 -25 -13z"/>
<path d="M737 652 c-14 -15 -17 -41 -17 -141 0 -67 5 -131 10 -142 10 -19 30
-19 783 -19 588 0 776 3 785 12 8 8 12 56 12 150 0 126 -2 138 -19 148 -13 7
-275 10 -779 10 -723 0 -760 -1 -775 -18z m341 -144 l-3 -123 -85 0 -85 0 -3
123 -3 122 91 0 91 0 -3 -122z m100 0 l-3 -123 -30 0 -30 0 -2 115 c0 63 1
118 4 122 2 5 18 8 34 8 l30 0 -3 -122z"/>
</g>
</svg>
